External Loads File
version=1
nRows=78
nColumns=13
Range=5.000000e-03-10 seconds
endheader
time 	forceRightX 	forceRightY 	forceRightZ 	pointRightX 	pointRightY 	pointRightZ 	forceLeftX 	forceLeftY 	forceLeftZ 	pointLeftX 	pointLeftY 	pointLeftZ 		
2.505000 -40.940448 130.850146 -0.000000 0.216729 0.467227 -0.125542 143.991597 508.887956 -0.000000 0.203027 0.147018 -0.362767
2.510000 -36.835551 141.589691 -0.000000 0.222519 0.468754 -0.125368 133.080951 457.947829 -0.000000 0.197749 0.146341 -0.362817
2.515000 -33.049214 152.361792 -0.000000 0.228215 0.470306 -0.125492 120.845191 406.353298 -0.000000 0.192442 0.145767 -0.362681
2.520000 -29.468475 163.362225 -0.000000 0.233679 0.471361 -0.125675 107.565475 354.245376 -0.000000 0.187109 0.145547 -0.362356
2.525000 -25.790945 174.809833 -0.000000 0.239143 0.472213 -0.125796 93.869089 301.791972 -0.000000 0.181799 0.145653 -0.362188
2.530000 -21.674422 186.907461 -0.000000 0.244568 0.472725 -0.125904 80.354908 249.388101 -0.000000 0.176367 0.146118 -0.362097
2.535000 -16.904141 199.811831 -0.000000 0.249924 0.473022 -0.125862 67.491642 197.709453 -0.000000 0.170823 0.146830 -0.361980
2.540000 -10.725375 213.665499 -0.000000 0.255818 0.472929 -0.125639 56.252008 147.414164 -0.000000 0.165000 0.148057 -0.361911
2.545000 -3.493785 228.458870 -0.000000 0.261594 0.472576 -0.124952 46.537207 99.531642 -0.000000 0.159060 0.149608 -0.361816
2.550000 2.718920 244.220700 -0.000000 0.265307 0.471936 -0.126031 38.263142 55.109382 -0.000000 0.152760 0.147392 -0.361785
2.555000 10.883039 260.968854 -0.000000 0.270120 0.470806 -0.125890 32.823237 14.108395 -0.000000 0.146461 0.147323 -0.361693
2.560000 22.686820 278.378858 -0.000000 0.274822 0.469396 -0.125743 29.321055 -23.135594 -0.000000 0.139766 0.156247 -0.361577
2.565000 33.690568 296.461658 -0.000000 0.279444 0.467550 -0.125536 27.137001 -55.729544 -0.000000 0.132876 0.159427 -0.361382
2.570000 44.927540 314.860351 -0.000000 0.283953 0.465352 -0.125307 25.743458 -83.415068 -0.000000 0.126192 0.162745 -0.361473
2.575000 55.781997 333.182259 -0.000000 0.288228 0.462718 -0.125098 24.581130 -105.696432 -0.000000 0.119990 0.166051 -0.361343
2.580000 65.751787 350.953542 -0.000000 0.292138 0.459802 -0.124038 23.284194 -122.167095 -0.000000 0.114270 0.169384 -0.361138
2.585000 75.443207 367.506911 -0.000000 0.296370 0.456630 -0.124180 21.448385 -132.702040 -0.000000 0.108844 0.172988 -0.360915
2.590000 83.940841 382.563932 -0.000000 0.300171 0.453081 -0.123829 19.592839 -137.383876 -0.000000 0.103554 0.176646 -0.360777
2.595000 91.522188 395.750942 -0.000000 0.303851 0.449268 -0.123313 18.096009 -136.733587 -0.000000 0.098284 0.180689 -0.360623
2.600000 92.892693 408.101044 -0.000000 0.307759 0.444866 -0.123184 19.192867 -131.355042 -0.000000 0.092996 0.177729 -0.360506
2.605000 92.221001 418.513760 -0.000000 0.311586 0.440436 -0.122920 21.562226 -122.456600 -0.000000 0.087774 0.175070 -0.360348
2.610000 96.155000 425.418087 -0.000000 0.315418 0.435606 -0.122728 23.399294 -111.404689 -0.000000 0.082573 0.180017 -0.360185
2.615000 102.916846 429.123738 -0.000000 0.319165 0.430515 -0.122549 25.483756 -99.053286 -0.000000 0.077673 0.189667 -0.360061
2.620000 110.912639 429.961777 -0.000000 0.323073 0.425129 -0.122514 28.230910 -86.080124 -0.000000 0.072991 0.201016 -0.359909
2.625000 116.777675 428.945544 -0.000000 0.326522 0.419527 -0.122141 32.139724 -72.861425 -0.000000 0.068570 0.211059 -0.359876
2.630000 117.384667 427.328630 -0.000000 0.329886 0.413761 -0.121944 37.316697 -59.585453 -0.000000 0.064459 0.216791 -0.359787
2.635000 117.227702 424.366950 -0.000000 0.333139 0.407901 -0.121916 42.715655 -47.010705 -0.000000 0.060602 0.222704 -0.359782
2.640000 116.333737 420.616998 -0.000000 0.336231 0.401825 -0.122205 48.198134 -35.622100 -0.000000 0.057068 0.228728 -0.359803
2.645000 114.629301 416.783565 -0.000000 0.339227 0.395726 -0.122316 53.593766 -25.879070 -0.000000 0.053814 0.234889 -0.359773
2.650000 112.265451 413.583001 -0.000000 0.342009 0.389481 -0.122503 58.653137 -18.193599 -0.000000 0.050915 0.241251 -0.359818
2.655000 109.662947 411.667038 -0.000000 0.344563 0.383013 -0.122532 63.085388 -12.875369 -0.000000 0.048396 0.248008 -0.359823
2.660000 106.143203 411.950411 -0.000000 0.346825 0.376220 -0.122424 66.635032 -9.862046 -0.000000 0.046167 0.254355 -0.359591
2.665000 102.452797 414.912503 -0.000000 0.348774 0.369395 -0.122041 69.027502 -9.091629 -0.000000 0.044419 0.261150 -0.359393
2.670000 90.993204 422.840431 -0.000000 0.350338 0.362361 -0.121855 70.237109 -8.957051 -0.000000 0.043366 0.262226 -0.359987
2.675000 93.992457 431.160530 -0.000000 0.351728 0.355158 -0.121833 69.640834 -12.714154 -0.000000 0.042529 0.274475 -0.360034
2.680000 89.812566 444.971935 -0.000000 0.352635 0.347751 -0.121464 67.730889 -16.292799 -0.000000 0.042064 0.281056 -0.360110
2.685000 86.120000 462.653386 -0.000000 0.352921 0.340349 -0.121482 64.510159 -20.490295 -0.000000 0.041923 0.287945 -0.360605
2.690000 83.176719 484.133591 -0.000000 0.353646 0.332824 -0.122119 60.341940 -24.903460 -0.000000 0.042207 0.294933 -0.360622
2.695000 80.483993 509.398372 -0.000000 0.353698 0.325281 -0.122071 55.756854 -29.116513 -0.000000 0.042892 0.301897 -0.360646
2.700000 78.344027 538.227891 -0.000000 0.353356 0.317623 -0.122285 51.241125 -32.938223 -0.000000 0.043870 0.308836 -0.360702
2.705000 76.746578 570.371896 -0.000000 0.352643 0.309902 -0.122456 47.146477 -36.256059 -0.000000 0.045356 0.315757 -0.360737
2.710000 75.569929 605.500298 -0.000000 0.351695 0.302170 -0.121804 43.614067 -39.039754 -0.000000 0.047052 0.322635 -0.360833
2.715000 74.716480 643.222503 -0.000000 0.350216 0.294468 -0.121845 40.616968 -41.317583 -0.000000 0.048951 0.329436 -0.361054
2.720000 74.524717 683.085551 -0.000000 0.348601 0.286689 -0.121679 38.043522 -43.188096 -0.000000 0.051205 0.336206 -0.361117
2.725000 74.994148 724.678464 -0.000000 0.346643 0.278983 -0.121637 35.808654 -44.775077 -0.000000 0.053822 0.342990 -0.361352
2.730000 78.044666 767.380230 -0.000000 0.344585 0.271201 -0.121768 33.684250 -46.325968 -0.000000 0.056745 0.350370 -0.361645
2.735000 79.700403 811.130966 -0.000000 0.342220 0.263411 -0.121671 31.713028 -47.820314 -0.000000 0.060302 0.356562 -0.358226
2.740000 83.860116 855.041018 -0.000000 0.339616 0.255520 -0.121564 29.372953 -49.552388 -0.000000 0.063902 0.363064 -0.358517
2.745000 88.931406 898.788364 -0.000000 0.336693 0.247895 -0.121524 26.442181 -51.531427 -0.000000 0.067461 0.369569 -0.362554
2.750000 96.090814 941.836875 -0.000000 0.333541 0.240420 -0.121430 22.577217 -53.813313 -0.000000 0.071759 0.376074 -0.362766
2.755000 104.960080 983.868941 -0.000000 0.329938 0.232942 -0.121233 17.608776 -56.352073 -0.000000 0.076222 0.382347 -0.362975
2.760000 115.849636 1024.546688 -0.000000 0.325865 0.225816 -0.120640 11.416355 -59.071108 -0.000000 0.081047 0.388646 -0.363096
2.765000 126.250800 1063.896466 -0.000000 0.322258 0.218757 -0.120989 4.117305 -61.817242 -0.000000 0.085696 0.394885 -0.361985
2.770000 140.136283 1101.207803 -0.000000 0.317724 0.211822 -0.120801 -4.470390 -64.430770 -0.000000 0.090984 0.400825 -0.361956
2.775000 154.571729 1136.558494 -0.000000 0.313051 0.205203 -0.120684 -14.026932 -66.676980 -0.000000 0.096527 0.406432 -0.361972
2.780000 172.148914 1169.266663 -0.000000 0.308096 0.198691 -0.120524 -24.420909 -68.319690 -0.000000 0.102301 0.412292 -0.361913
2.785000 191.398938 1199.110705 -0.000000 0.302829 0.192435 -0.120423 -35.142025 -69.237550 -0.000000 0.108226 0.418055 -0.361951
2.790000 211.342683 1225.817914 -0.000000 0.297230 0.186530 -0.120242 -45.616818 -69.469542 -0.000000 0.114320 0.423405 -0.362014
2.795000 233.295136 1248.738583 -0.000000 0.291343 0.180871 -0.120084 -55.405991 -69.084722 -0.000000 0.120673 0.428683 -0.363228
2.800000 255.708082 1267.696497 -0.000000 0.285254 0.175218 -0.120196 -64.009766 -68.256726 -0.000000 0.127023 0.433694 -0.363409
2.805000 277.379146 1282.471933 -0.000000 0.278906 0.170445 -0.120116 -71.112789 -67.059785 -0.000000 0.133533 0.438479 -0.363364
2.810000 299.746491 1292.251911 -0.000000 0.272337 0.165785 -0.119996 -76.705653 -65.285279 -0.000000 0.140319 0.442935 -0.363370
2.815000 321.089025 1296.871889 -0.000000 0.265431 0.161454 -0.120356 -80.754024 -62.837036 -0.000000 0.146907 0.447319 -0.363887
2.820000 339.825557 1296.186902 -0.000000 0.258550 0.157346 -0.120296 -83.347321 -59.681369 -0.000000 0.153379 0.451577 -0.362720
2.825000 357.088603 1289.336156 -0.000000 0.251645 0.153484 -0.120274 -84.782811 -55.716404 -0.000000 0.160093 0.455617 -0.362631
2.830000 371.538411 1276.072495 -0.000000 0.244622 0.150252 -0.119837 -85.294840 -51.070764 -0.000000 0.166775 0.459491 -0.362903
2.835000 383.712354 1255.671916 -0.000000 0.237491 0.147064 -0.119770 -85.222044 -45.763578 -0.000000 0.173566 0.463009 -0.363062
2.840000 392.698301 1227.931546 -0.000000 0.230477 0.144193 -0.119751 -84.827483 -39.889469 -0.000000 0.180574 0.466266 -0.363069
2.845000 398.129845 1192.641210 -0.000000 0.223451 0.141865 -0.119732 -84.349399 -33.514889 -0.000000 0.187642 0.469353 -0.363089
2.850000 399.241377 1149.892445 -0.000000 0.216556 0.139952 -0.119739 -83.954056 -26.791201 -0.000000 0.194710 0.472141 -0.363125
2.855000 396.613378 1099.519711 -0.000000 0.209585 0.138124 -0.119702 -83.789168 -19.839502 -0.000000 0.201708 0.474497 -0.363064
2.860000 389.620271 1042.026032 -0.000000 0.203093 0.137052 -0.119872 -83.946209 -12.913970 -0.000000 0.208941 0.476480 -0.363148
2.865000 379.287885 977.607953 -0.000000 0.196504 0.135842 -0.119957 -84.528608 -6.160766 -0.000000 0.216075 0.478205 -0.363119
2.870000 365.861899 907.052179 -0.000000 0.190009 0.135182 -0.119978 -85.591894 0.208429 -0.000000 0.223282 0.479653 -0.363014
2.875000 350.133733 831.241761 -0.000000 0.183559 0.135126 -0.119990 -87.152558 6.018907 -0.000000 0.230628 0.480264 -0.363329
2.880000 331.160442 752.066025 -0.000000 0.177209 0.135138 -0.119977 -89.207811 10.913044 -0.000000 0.237875 0.480950 -0.363064
2.885000 309.163670 671.154398 -0.000000 0.170978 0.135563 -0.119974 -91.722846 14.699635 -0.000000 0.244811 0.481245 -0.363208
2.890000 285.691694 589.549870 -0.000000 0.164647 0.136278 -0.120152 -94.543206 17.569087 -0.000000 0.251876 0.481155 -0.363083
